# xmcd
#
# Track frame offsets:
#	150
#	17445
#	33520
#	55578
#	81650
#	98710
#	116863
#	137272
#	162710
#	187890
#	205183
#	214823
#	232446
#	250210
#	272914
#	282772
#	302260
#	323709
#
# Disc length: 4623 seconds
# Revision: 0
# Processed by: cddbd v1.5.2PL0 Copyright (c) Steve Scherf et al.
# Submitted via: dBpowerAMP V12.0
#
DISCID=00120d12
DTITLE=Various Artist - 20 Years of Nuclear Blast
DYEAR=2008
DGENRE=Metal
TTITLE0=Sonic Syndicate - Psychic Suicide
TTITLE1=Clawfinger - The Price We Pay
TTITLE2=In Flames - Only for the Weak
TTITLE3=Meshuggah - Future Breed Machine
TTITLE4=Soilwork - Exile
TTITLE5=The Destiny Program - Project Hoax
TTITLE6=Scar Symmetry - The Illusionist
TTITLE7=Threat Signal - Counterbalance
TTITLE8=Mnemic - Ghost
TTITLE9=Ektomorf - Destroy
TTITLE10=Agnostic Front - Warriors
TTITLE11=All Shall Perish - Eradication
TTITLE12=Bleed the Sky - God in the Frame
TTITLE13=Darkane - Solitary Confinement
TTITLE14=The Duskfall - Trust Is Overrated
TTITLE15=One Man Army and the Undead Quartet - So Grim, So True, So Real
TTITLE16=Children of Bodom - Hate Me!
TTITLE17=Wintersun - Winter Madness
EXTD=
EXTT0=
EXTT1=
EXTT2=
EXTT3=
EXTT4=
EXTT5=
EXTT6=
EXTT7=
EXTT8=
EXTT9=
EXTT10=
EXTT11=
EXTT12=
EXTT13=
EXTT14=
EXTT15=
EXTT16=
EXTT17=
PLAYORDER=
